<svg width="140" height="61" viewBox="0 0 229 61" fill="none" xmlns="http://www.w3.org/2000/svg">
<path d="M23.2237 34.7028C22.0699 34.7028 21.6477 34.2075 21.6477 32.9965L21.704 23.2817C21.704 22.924 21.6196 22.7038 21.2256 22.7038C21.113 22.7038 20.8597 22.7313 20.4939 22.7588C19.6215 22.8689 18.0455 23.0065 16.1599 23.0616H16.0755V24.2725H16.1599C17.173 24.2725 17.8203 24.5477 17.8203 25.7035L17.7922 28.5382C17.7922 33.2167 15.9066 34.1249 14.5276 34.1249C13.4019 34.1249 12.9798 32.969 12.9798 31.9783L13.0361 23.2542C13.0361 22.8964 12.9516 22.6763 12.5576 22.6763C12.4451 22.6763 12.2199 22.7038 11.8259 22.7313C10.9816 22.8414 9.57449 22.979 7.68892 23.034H7.60449V24.245H7.68892C8.67392 24.245 9.34935 24.5202 9.34935 25.676L9.29306 31.5655C9.29306 35.3908 11.2912 36.2165 12.9516 36.2165C15.4282 36.2165 16.8635 34.5927 17.6515 33.7396C17.8766 33.4919 18.1018 33.2442 18.158 33.2442C18.1862 33.2442 18.3269 33.2442 18.3269 33.4369V35.8312C18.3269 36.1889 18.5802 36.244 18.7209 36.244C18.8335 36.244 19.0586 36.2165 19.4245 36.1614C20.2969 36.0513 21.7885 35.9137 23.28 35.9137H23.3645V34.7028H23.2237Z" fill="#F2F2F2"/>
<path d="M48.9947 16.1323C45.6176 16.1323 44.6888 20.8659 44.2386 23.2327H41.5087L41.2554 24.4436H44.0697L43.9008 25.627C43.7601 26.4251 43.6476 27.2232 43.535 28.0213L43.338 29.3973C42.156 37.2407 41.5368 40.7358 40.2423 40.7358C40.1016 40.7358 40.0734 40.6808 40.0734 40.5157C40.0734 40.4606 40.1016 40.4056 40.1016 40.323C40.1297 40.213 40.1578 40.0754 40.1578 39.8827C40.1578 39.3323 39.7639 38.9745 39.1729 38.9745C38.3286 38.9745 37.9346 39.58 37.9346 40.1579C37.9346 41.2037 38.6944 41.9468 39.8201 41.9468C41.8183 41.9468 44.2667 39.6625 46.4618 24.4711H49.5013L49.7264 23.2602H46.6307L46.884 21.2787C47.278 18.5541 47.7564 17.3983 48.5444 17.3983C48.854 17.3983 49.051 17.5634 49.051 17.8111C49.051 17.9762 49.0228 18.0863 48.9947 18.1689C48.9665 18.2789 48.9384 18.389 48.9384 18.5817C48.9384 19.022 49.2198 19.5449 50.0078 19.5449C50.9647 19.5449 51.415 18.8018 51.415 18.0588C51.3868 16.8203 50.5144 16.1323 48.9947 16.1323Z" fill="#F2F2F2"/>
<path d="M50.9144 32.999C50.0419 32.999 49.3384 33.7146 49.3384 34.5952C49.3384 35.4759 50.0419 36.1914 50.9144 36.1914C51.7868 36.1914 52.5185 35.4759 52.5185 34.5952C52.5185 33.7146 51.7868 32.999 50.9144 32.999Z" fill="#F2F2F2"/>
<path d="M3.26457 57.2431H57.4676V3.24745H3.26457V57.2431ZM60.7603 60.4905H0V0H60.7603V60.4905Z" fill="#F2F2F2"/>
<path d="M36.6691 27.606C36.6691 29.7801 35.6278 34.5412 32.5321 34.5412C30.7873 34.5412 30.1963 32.7799 30.1963 31.2937C30.1963 28.4041 31.5753 24.386 34.1925 24.386C36.2188 24.386 36.6691 26.1474 36.6691 27.606ZM34.8961 22.7073C32.4477 22.7073 31.125 24.386 30.5621 25.1841C30.534 23.5879 29.943 22.8174 28.6765 22.8174C26.6503 22.8174 25.4683 25.5694 24.821 27.0556L24.7928 27.1106L25.7497 27.661L25.7778 27.5784C25.8341 27.4959 25.8904 27.3583 25.9467 27.2207C26.3688 26.3125 27.2131 24.4136 28.1137 24.4136C28.5921 24.4136 28.6765 25.019 28.6765 25.3768C28.6765 25.8997 28.5077 26.6978 28.2544 27.9362L25.7216 38.7243C25.3557 40.3205 25.1868 40.5957 23.5827 40.5957H23.5264L23.3013 41.8067H30.0837L30.3651 40.5957H30.2525C28.1418 40.5957 27.8041 40.5682 27.8041 39.7701C27.8041 39.605 27.8885 39.1922 27.973 38.8895L29.155 33.8257C29.8023 35.1742 30.6184 36.275 33.0105 36.275C37.1757 36.275 39.399 31.624 39.399 28.2389C39.4552 25.4593 38.02 22.7073 34.8961 22.7073Z" fill="#F2F2F2"/>
<path d="M97.1225 44.2835C96.4189 45.9622 95.7716 47.4483 95.2369 48.7143C94.6741 50.0078 94.1957 51.1361 93.7735 52.1544C93.3514 53.1451 92.9855 54.0258 92.6759 54.7964C92.3664 55.5394 92.0849 56.2274 91.8317 56.8329C91.5784 57.4384 91.3532 57.9888 91.1562 58.4841C90.9592 58.9795 90.7341 59.4474 90.5371 59.9152H93.4358L95.2369 55.4293H101.935C102.244 56.1724 102.526 56.943 102.835 57.686C103.145 58.4291 103.426 59.1722 103.736 59.9427H106.691L100.218 44.3385H97.1225V44.2835ZM100.697 52.2645C100.753 52.3745 100.809 52.5121 100.837 52.6222C100.894 52.7598 100.95 52.8974 101.006 53.0075H96.1656L96.5596 51.9342C96.8974 51.0811 97.2351 50.2279 97.5728 49.3748C97.9105 48.5216 98.2482 47.641 98.5859 46.7878H98.6141C98.7548 47.1731 98.9236 47.641 99.1488 48.2189C99.3739 48.7969 99.5709 49.3748 99.7961 49.9252C100.049 50.5582 100.303 51.2462 100.584 51.9342C100.612 52.0443 100.64 52.1544 100.697 52.2645ZM81.8691 52.4296C81.7847 52.6773 81.6721 53.0075 81.5595 53.3378C81.447 53.6955 81.3063 54.0533 81.1937 54.4386C81.053 54.8239 80.9404 55.2092 80.7997 55.5945C80.659 55.9798 80.5464 56.3375 80.4338 56.6403H80.4057C80.2931 56.31 80.2087 55.9798 80.0961 55.622C79.9835 55.2642 79.871 54.9065 79.7584 54.5212C79.6458 54.1634 79.5333 53.8056 79.4207 53.4754C79.3081 53.1451 79.2237 52.8424 79.1111 52.5672L76.2687 44.2835H71.7658V59.8877H74.552V51.7141C74.552 50.6132 74.552 49.6225 74.552 48.7418C74.552 47.8612 74.5238 47.0906 74.5238 46.4576H74.552C74.7208 46.9805 74.8897 47.5309 75.0304 48.1088C75.1711 48.6868 75.3963 49.3473 75.6495 50.1179L78.9985 59.8877H81.7847L84.5708 51.7691C84.7397 51.2187 84.9367 50.6958 85.1055 50.1454C85.2744 49.595 85.4432 49.0996 85.584 48.6593C85.7247 48.1914 85.8654 47.8061 85.978 47.4483C86.0905 47.0906 86.175 46.8154 86.2594 46.5952H86.2875C86.2875 46.9254 86.2875 47.2832 86.2875 47.7235C86.2875 48.1639 86.2875 48.6317 86.2875 49.0996C86.2875 49.595 86.2875 50.0903 86.2875 50.5857C86.2875 51.0811 86.2875 51.5214 86.2875 51.9342V59.8877H89.1018V44.2835H84.7115L81.8691 52.4296ZM143.277 47.9712C143.727 47.4759 144.262 47.063 144.909 46.7878C145.556 46.5126 146.288 46.3475 147.104 46.3475C148.089 46.3475 148.962 46.5677 149.637 47.0355C150.341 47.4759 150.847 48.1088 151.241 48.9345H154.449C154.224 48.2464 153.886 47.5859 153.464 46.9805C153.014 46.375 152.479 45.8521 151.86 45.4118C151.241 44.9715 150.509 44.6137 149.721 44.366C148.933 44.1183 148.061 43.9807 147.132 43.9807C145.922 43.9807 144.796 44.1734 143.783 44.5862C142.77 44.999 141.926 45.5494 141.194 46.2649C140.491 46.9805 139.928 47.8336 139.534 48.8519C139.14 49.8426 138.943 50.916 138.943 52.0993C138.943 53.3103 139.14 54.4111 139.534 55.4018C139.928 56.3926 140.462 57.2457 141.166 57.9613C141.87 58.6768 142.686 59.2272 143.643 59.6125C144.599 59.9978 145.641 60.1904 146.738 60.1904C148.005 60.1904 149.046 59.9978 149.89 59.64C150.734 59.2547 151.382 58.8419 151.86 58.319V59.8877H154.421V51.6315H146.344V53.8331H151.86C151.804 54.3836 151.691 54.9065 151.466 55.4018C151.241 55.8972 150.96 56.31 150.566 56.6678C150.172 57.0255 149.693 57.3283 149.159 57.5209C148.596 57.7411 147.948 57.8512 147.189 57.8512C146.344 57.8512 145.613 57.7136 144.965 57.4108C144.318 57.1081 143.755 56.7228 143.305 56.1999C142.826 55.677 142.489 55.0716 142.264 54.356C142.038 53.6405 141.898 52.8699 141.898 52.0168C141.898 51.1912 142.01 50.4481 142.235 49.7326C142.489 49.0721 142.826 48.4666 143.277 47.9712ZM118.764 51.9893C118.764 52.7598 118.764 53.5029 118.764 54.2735C118.764 55.0441 118.764 55.6495 118.764 56.1174V56.1449C118.652 55.9798 118.539 55.7596 118.37 55.5119C118.23 55.2642 118.061 55.0165 117.92 54.7688C117.779 54.4936 117.61 54.246 117.442 53.9708C117.301 53.6955 117.132 53.4754 116.991 53.2277L111.672 44.2835H108.183V59.8877H110.941V51.8517C110.941 51.3563 110.941 50.8609 110.941 50.3655C110.941 49.8702 110.941 49.4023 110.941 48.9895V48.0263H110.969C111.081 48.2464 111.335 48.6317 111.7 49.2097C112.066 49.7876 112.46 50.4756 112.939 51.3012L118.061 59.8602H121.438V44.2559H118.764V51.9893ZM180.003 52.4296C179.919 52.6773 179.806 53.0075 179.693 53.3378C179.581 53.6955 179.44 54.0533 179.328 54.4386C179.187 54.8239 179.074 55.2092 178.934 55.5945C178.793 55.9798 178.68 56.3375 178.54 56.6403H178.511C178.399 56.31 178.286 55.9798 178.202 55.622C178.089 55.2642 177.977 54.9065 177.864 54.5212C177.752 54.1634 177.639 53.8056 177.526 53.4754C177.414 53.1451 177.301 52.8424 177.217 52.5672L174.346 44.2835H169.872V59.8877H172.658V51.7141C172.658 50.6132 172.658 49.6225 172.658 48.7418C172.658 47.8612 172.63 47.0906 172.63 46.4576H172.658C172.827 46.9805 172.967 47.5309 173.136 48.1088C173.277 48.6868 173.502 49.3473 173.755 50.1179L177.104 59.8877H179.89L182.677 51.7691C182.845 51.2187 183.042 50.6958 183.211 50.1454C183.38 49.595 183.549 49.0996 183.69 48.6593C183.83 48.1914 183.971 47.8061 184.084 47.4483C184.196 47.0906 184.281 46.8154 184.365 46.5952H184.393C184.393 46.9254 184.393 47.2832 184.393 47.7235C184.393 48.1639 184.393 48.6317 184.393 49.0996C184.393 49.595 184.393 50.0903 184.393 50.5857C184.393 51.0811 184.393 51.5214 184.393 51.9342V59.8877H187.208V44.2835H182.874L180.003 52.4296ZM193.286 53.1726H199.731V50.7233H193.286V46.7603H200.266V44.2835H190.472V59.8877H200.435V57.4659H193.286V53.1726ZM218.165 44.2835V46.7603H222.161V59.9152H225.003V46.7603H229V44.2835H218.165ZM213.521 51.9893C213.521 52.7598 213.521 53.5029 213.521 54.2735C213.521 55.0441 213.521 55.6495 213.521 56.1174L213.493 56.1449C213.38 55.9798 213.268 55.7596 213.099 55.5119C212.958 55.2642 212.789 55.0165 212.649 54.7688C212.508 54.4936 212.339 54.246 212.17 53.9708C212.029 53.6955 211.861 53.4754 211.748 53.2277L206.429 44.2835H202.939V59.8877H205.697V51.8517C205.697 51.3563 205.697 50.8609 205.697 50.3655C205.697 49.8702 205.697 49.4023 205.697 48.9895V48.0263H205.726C205.838 48.2464 206.091 48.6317 206.429 49.2097C206.795 49.7876 207.189 50.4756 207.667 51.3012L212.789 59.8602H216.166V44.2559H213.465V51.9893H213.521ZM129.543 44.2835C128.839 45.9622 128.192 47.4483 127.629 48.7143C127.066 50.0078 126.588 51.1361 126.166 52.1544C125.744 53.1451 125.378 54.0258 125.068 54.7964C124.759 55.5394 124.477 56.2274 124.224 56.8329C123.971 57.4384 123.746 57.9888 123.549 58.4841C123.352 58.9795 123.155 59.4474 122.929 59.9152H125.828L127.601 55.4293H134.299C134.609 56.1724 134.89 56.943 135.2 57.686C135.509 58.4291 135.791 59.1722 136.128 59.9427H139.083L132.611 44.3385H129.543V44.2835ZM133.117 52.2645C133.173 52.3745 133.23 52.5121 133.258 52.6222C133.314 52.7598 133.37 52.8974 133.427 53.0075H128.586L128.98 51.9342C129.318 51.0811 129.656 50.2279 129.993 49.3748C130.303 48.5216 130.641 47.641 131.006 46.7878H131.063C131.203 47.1731 131.372 47.641 131.597 48.2189C131.823 48.7969 132.02 49.3748 132.245 49.9252C132.498 50.5582 132.751 51.2462 133.033 51.9342C133.033 52.0443 133.061 52.1544 133.117 52.2645ZM160.219 53.1726H166.663V50.7233H160.219V46.7603H167.198V44.2835H157.404V59.8877H167.367V57.4659H160.219V53.1726ZM124.224 22.1293C123.042 22.1293 121.944 22.3219 120.959 22.7347C119.974 23.1475 119.13 23.698 118.427 24.441C117.723 25.1566 117.188 26.0097 116.794 27.0004C116.4 27.9912 116.203 29.0645 116.203 30.2479C116.203 31.4313 116.4 32.5046 116.794 33.4953C117.188 34.4861 117.723 35.3392 118.427 36.0548C119.13 36.7703 119.974 37.3482 120.959 37.7335C121.944 38.1463 123.042 38.339 124.224 38.339C125.434 38.339 126.532 38.1463 127.517 37.7335C128.502 37.3207 129.346 36.7703 130.05 36.0548C130.753 35.3392 131.288 34.4861 131.682 33.4953C132.076 32.5046 132.273 31.4313 132.273 30.2479C132.273 29.0645 132.076 27.9912 131.682 26.9729C131.288 25.9822 130.753 25.129 130.021 24.386C129.318 23.6704 128.474 23.0925 127.489 22.7072C126.504 22.3494 125.406 22.1293 124.224 22.1293ZM127.995 26.1198C128.445 26.6152 128.783 27.2206 129.008 27.9362C129.233 28.6517 129.346 29.4223 129.346 30.2479C129.346 31.0735 129.233 31.8441 128.98 32.5321C128.755 33.2201 128.417 33.8256 127.967 34.3485C127.517 34.8439 126.982 35.2567 126.363 35.5594C125.744 35.8621 125.012 35.9997 124.224 35.9997C123.436 35.9997 122.732 35.8621 122.085 35.5594C121.466 35.2567 120.903 34.8714 120.481 34.3485C120.031 33.8531 119.693 33.2201 119.468 32.5321C119.243 31.8166 119.13 31.0735 119.13 30.2479C119.13 29.4223 119.243 28.6517 119.468 27.9637C119.693 27.2757 120.031 26.6702 120.453 26.1473C120.875 25.6519 121.41 25.2391 122.057 24.9639C122.676 24.6887 123.408 24.5236 124.196 24.5236C125.012 24.5236 125.716 24.6612 126.363 24.9639C126.982 25.2391 127.545 25.6244 127.995 26.1198ZM152.367 22.4595V38.0638H161.598V35.642H155.181V22.4595H152.367ZM136.072 24.441C135.369 25.1566 134.834 26.0097 134.44 27.0004C134.046 27.9912 133.849 29.0645 133.849 30.2479C133.849 31.4313 134.046 32.5046 134.44 33.4953C134.834 34.4861 135.369 35.3392 136.072 36.0548C136.776 36.7703 137.62 37.3482 138.605 37.7335C139.59 38.1463 140.688 38.339 141.87 38.339C143.08 38.339 144.177 38.1463 145.162 37.7335C146.147 37.3207 146.992 36.7703 147.695 36.0548C148.399 35.3392 148.933 34.4861 149.327 33.4953C149.721 32.5046 149.918 31.4313 149.918 30.2479C149.918 29.0645 149.721 27.9912 149.327 26.9729C148.933 25.9822 148.371 25.129 147.667 24.386C146.963 23.6704 146.119 23.0925 145.106 22.7072C144.121 22.2944 143.023 22.1018 141.841 22.1018C140.659 22.1018 139.562 22.2944 138.577 22.7072C137.62 23.1475 136.776 23.7255 136.072 24.441ZM141.841 24.5236C142.658 24.5236 143.361 24.6612 144.008 24.9639C144.628 25.2391 145.19 25.6519 145.613 26.1473C146.063 26.6427 146.401 27.2481 146.626 27.9637C146.851 28.6792 146.963 29.4498 146.963 30.2754C146.963 31.101 146.851 31.8716 146.598 32.5596C146.344 33.2477 146.007 33.8531 145.584 34.376C145.134 34.8714 144.599 35.2842 143.98 35.5869C143.361 35.8896 142.629 36.0272 141.841 36.0272C141.053 36.0272 140.35 35.8896 139.703 35.5869C139.055 35.2842 138.521 34.8989 138.098 34.376C137.648 33.8806 137.339 33.2477 137.085 32.5596C136.86 31.8441 136.748 31.101 136.748 30.2754C136.748 29.4498 136.86 28.6792 137.085 27.9912C137.31 27.3032 137.648 26.6977 138.07 26.1748C138.521 25.6795 139.027 25.2666 139.674 24.9914C140.322 24.6612 141.053 24.5236 141.841 24.5236ZM113.755 38.0638V22.4595H110.912V28.8168H104.102V22.4595H101.259V38.0638H104.102V31.2662H110.912V38.0638H113.755ZM88.2012 26.1748C88.6234 25.6795 89.1581 25.2666 89.7772 24.9639C90.3964 24.6612 91.0999 24.5236 91.8879 24.5236C92.8729 24.5236 93.7172 24.7437 94.4208 25.2116C95.1244 25.6795 95.6591 26.3124 96.0531 27.1381H99.1488C98.9518 26.395 98.6141 25.707 98.1919 25.1015C97.7698 24.4961 97.2632 23.9732 96.6441 23.5328C96.0249 23.0925 95.3214 22.7623 94.5334 22.5146C93.7454 22.2669 92.8729 22.1568 91.9161 22.1568C90.7059 22.1568 89.6084 22.3494 88.6234 22.7898C87.6384 23.2026 86.7941 23.7805 86.1187 24.4961C85.4151 25.2116 84.8804 26.0923 84.5145 27.083C84.1487 28.0738 83.9517 29.1471 83.9517 30.3029C83.9517 31.4588 84.1487 32.5321 84.5145 33.5229C84.8804 34.5136 85.4432 35.3667 86.1187 36.0823C86.8222 36.7978 87.6384 37.3758 88.5952 37.7886C89.5521 38.2014 90.6497 38.394 91.8317 38.394C92.7885 38.394 93.6609 38.2564 94.4489 38.0087C95.2369 37.7335 95.9405 37.4033 96.5315 36.9629C97.1225 36.5226 97.6572 35.9997 98.0794 35.4218C98.5015 34.8438 98.8111 34.2384 99.0644 33.5779H96.0812C95.8842 33.9081 95.6591 34.2384 95.4058 34.5411C95.1525 34.8439 94.8711 35.0915 94.5334 35.3117C94.1956 35.5319 93.8298 35.697 93.3795 35.8346C92.9574 35.9722 92.4789 36.0272 91.9724 36.0272C91.1844 36.0272 90.4808 35.8896 89.8335 35.5869C89.2144 35.2842 88.6797 34.8989 88.2294 34.376C87.7791 33.8806 87.4414 33.2752 87.2162 32.5596C86.9911 31.8716 86.8785 31.101 86.8785 30.2754C86.8785 29.4773 86.9911 28.7343 87.2162 28.0187C87.4695 27.3032 87.7791 26.6977 88.2012 26.1748ZM196.579 28.8994H190.472V24.9089H197.114V22.432H187.658V38.0363H190.5V31.3212H196.607V28.8994H196.579ZM72.4413 37.073C72.976 37.4858 73.5951 37.8161 74.2987 38.0363C75.0304 38.2564 75.7903 38.3665 76.6627 38.3665C77.5351 38.3665 78.3231 38.2564 79.0267 38.0087C79.7584 37.761 80.3775 37.4308 80.8841 37.018C81.4188 36.5777 81.8128 36.0823 82.0943 35.4768C82.4038 34.8714 82.5445 34.2109 82.5445 33.4953C82.5445 32.8073 82.432 32.2019 82.235 31.734C82.038 31.2662 81.7284 30.8533 81.3344 30.5231C80.9404 30.1929 80.462 29.8901 79.8991 29.67C79.3363 29.4223 78.7171 29.2021 77.9854 28.9819L76.8597 28.6517C76.4376 28.5141 76.0436 28.404 75.7058 28.2664C75.3681 28.1563 75.0586 27.9912 74.8053 27.8261C74.552 27.6609 74.355 27.4683 74.2424 27.2481C74.1017 27.028 74.0454 26.7528 74.0454 26.395C74.0454 25.8446 74.2706 25.3767 74.6927 25.019C75.1148 24.6612 75.734 24.4685 76.5501 24.4685C77.3944 24.4685 78.0417 24.6337 78.492 24.9914C78.9423 25.3492 79.2518 25.8171 79.4207 26.45H82.1224C82.0661 25.7895 81.8973 25.2116 81.6158 24.6612C81.3344 24.1108 80.9685 23.6704 80.4901 23.2852C80.0117 22.8999 79.4488 22.5971 78.8015 22.377C78.1543 22.1568 77.4226 22.0467 76.6064 22.0467C75.7903 22.0467 75.0586 22.1568 74.3831 22.377C73.7077 22.5971 73.1167 22.8999 72.6383 23.3127C72.1598 23.698 71.7658 24.1658 71.4844 24.7162C71.203 25.2666 71.0623 25.8721 71.0623 26.5051C71.0623 27.1381 71.1749 27.6885 71.3719 28.1563C71.5689 28.6517 71.8784 29.0645 72.2724 29.4223C72.6664 29.78 73.1448 30.1103 73.7077 30.3855C74.2706 30.6607 74.8897 30.8809 75.5933 31.0735L76.6345 31.3487C77.0848 31.4588 77.4788 31.5689 77.8447 31.7065C78.2105 31.8166 78.5201 31.9542 78.7734 32.1468C79.0267 32.3119 79.2237 32.5046 79.3644 32.7523C79.5051 32.9724 79.5614 33.2752 79.5614 33.6605C79.5614 34.3485 79.3081 34.9264 78.8297 35.3667C78.3513 35.8071 77.6195 36.0272 76.6908 36.0272C75.7621 36.0272 75.0023 35.8071 74.4113 35.3667C73.8203 34.9264 73.4544 34.3485 73.2856 33.6054H70.6401C70.6683 34.321 70.8653 34.9815 71.1748 35.5594C71.5126 36.1648 71.9347 36.6602 72.4413 37.073ZM173.868 37.761C174.853 38.1739 175.95 38.3665 177.132 38.3665C178.343 38.3665 179.44 38.1739 180.425 37.761C181.41 37.3482 182.254 36.7978 182.958 36.0823C183.662 35.3667 184.196 34.5136 184.59 33.5229C184.984 32.5321 185.181 31.4588 185.181 30.2754C185.181 29.092 184.984 28.0187 184.59 27.0004C184.196 26.0097 183.633 25.1566 182.93 24.4135C182.226 23.698 181.382 23.12 180.397 22.7347C179.412 22.3219 178.314 22.1293 177.132 22.1293C175.95 22.1293 174.853 22.3219 173.868 22.7347C172.883 23.1475 172.039 23.698 171.335 24.441C170.631 25.1566 170.097 26.0097 169.703 27.0004C169.309 27.9912 169.112 29.0645 169.112 30.2479C169.112 31.4313 169.309 32.5046 169.675 33.4953C170.069 34.4861 170.603 35.3392 171.307 36.0548C172.039 36.7978 172.883 37.3482 173.868 37.761ZM172.376 27.9362C172.601 27.2481 172.939 26.6427 173.361 26.1198C173.783 25.6244 174.318 25.2116 174.965 24.9364C175.585 24.6612 176.316 24.4961 177.104 24.4961C177.892 24.4961 178.624 24.6337 179.271 24.9364C179.89 25.2116 180.425 25.6244 180.875 26.1198C181.326 26.6152 181.663 27.2206 181.889 27.9362C182.114 28.6517 182.226 29.4223 182.226 30.2479C182.226 31.0735 182.114 31.8441 181.86 32.5321C181.635 33.2201 181.298 33.8256 180.847 34.3485C180.397 34.8439 179.862 35.2567 179.243 35.5594C178.596 35.8621 177.892 35.9997 177.104 35.9997C176.316 35.9997 175.613 35.8621 174.965 35.5594C174.346 35.2567 173.783 34.8714 173.361 34.3485C172.911 33.8531 172.573 33.2201 172.348 32.5321C172.123 31.8166 172.01 31.0735 172.01 30.2479C172.01 29.4223 172.151 28.6517 172.376 27.9362ZM174.965 8.2038C174.965 7.70843 174.965 7.24057 174.965 6.7452C174.965 6.24983 174.965 5.78198 174.965 5.36916V4.40594H174.994C175.106 4.62611 175.359 5.01139 175.697 5.58933C176.063 6.16726 176.485 6.85528 176.964 7.6809L182.086 16.2398H185.463V0.608081H182.761V8.31388C182.761 9.08446 182.761 9.82752 182.761 10.5981C182.761 11.3687 182.761 11.9741 182.761 12.442L182.733 12.4695C182.62 12.3044 182.508 12.0842 182.339 11.8365C182.198 11.5888 182.029 11.3412 181.889 11.0935C181.748 10.8183 181.579 10.5706 181.41 10.2954C181.269 10.0202 181.101 9.77248 180.96 9.55231L175.669 0.608081H172.207V16.2123H174.965V8.2038ZM191.626 11.7264H198.324C198.605 12.497 198.915 13.2401 199.225 13.9831C199.534 14.7262 199.816 15.4693 200.125 16.2398H203.08L196.607 0.635601H193.54C192.808 2.31436 192.189 3.80048 191.626 5.06644C191.063 6.35991 190.585 7.48826 190.163 8.50653C189.74 9.49727 189.375 10.3779 189.065 11.1485C188.755 11.8916 188.474 12.5796 188.221 13.185C187.967 13.7905 187.742 14.3409 187.545 14.8363C187.348 15.3317 187.151 15.7995 186.926 16.2674H189.825L191.626 11.7264ZM192.977 8.28636C193.315 7.43322 193.652 6.58008 193.99 5.72693C194.328 4.87379 194.665 3.99313 195.003 3.13999H195.059C195.2 3.52528 195.369 3.99313 195.594 4.57106C195.819 5.149 196.016 5.72693 196.241 6.27735C196.495 6.91032 196.748 7.59834 197.029 8.28636C197.058 8.39644 197.114 8.50653 197.142 8.61661C197.198 8.72669 197.255 8.83677 197.283 8.97438C197.339 9.11198 197.395 9.22206 197.423 9.35967H192.611L192.977 8.28636ZM153.07 13.7905H146.654V0.608081H143.811V16.2123H153.042V13.7905H153.07ZM104.074 10.1578H105.875L109.562 16.2398H112.798L108.802 9.82752C109.28 9.71744 109.759 9.52479 110.237 9.30463C110.715 9.08446 111.109 8.78173 111.475 8.39644C111.841 8.01115 112.123 7.57082 112.32 7.04793C112.517 6.52503 112.629 5.91958 112.629 5.20404C112.629 4.40594 112.46 3.6904 112.151 3.05742C111.841 2.42445 111.363 1.90155 110.744 1.51626C110.181 1.13097 109.533 0.883288 108.802 0.773205C108.098 0.663122 107.338 0.608081 106.55 0.608081H101.259V16.2123H104.102V10.1578H104.074ZM104.074 3.00238H106.41C107.451 3.00238 108.267 3.16751 108.886 3.52528C109.505 3.88305 109.787 4.4885 109.787 5.36916C109.787 6.24983 109.477 6.85528 108.886 7.24057C108.267 7.59834 107.451 7.79099 106.41 7.79099H104.074V3.00238ZM141.307 13.7905H134.158V9.49727H140.603V7.04793H134.158V3.08494H141.138V0.608081H131.344V16.2123H141.307V13.7905ZM79.0267 16.0472C79.7865 15.9371 80.4901 15.717 81.1093 15.4142C81.7284 15.084 82.235 14.6436 82.629 14.0382C83.023 13.4603 83.22 12.6897 83.22 11.7264C83.22 11.121 83.1074 10.5981 82.9104 10.1578C82.7134 9.71744 82.4601 9.33215 82.1505 9.02942C81.841 8.72669 81.5032 8.45148 81.1374 8.25884C80.7715 8.06619 80.4057 7.90107 80.068 7.81851C80.3775 7.70843 80.6871 7.57082 80.9685 7.37818C81.25 7.18553 81.5033 6.96537 81.7284 6.66264C81.9535 6.38743 82.1224 6.05718 82.2631 5.69941C82.4038 5.34164 82.4601 4.92883 82.4601 4.46098C82.4601 3.6904 82.3194 3.08495 82.038 2.56205C81.7565 2.06668 81.3063 1.65387 80.7434 1.37866C80.1805 1.07593 79.4488 0.883288 78.6045 0.773205C77.7321 0.663122 76.7471 0.608081 75.6214 0.608081H71.7658V16.2123H76.7471C77.507 16.2123 78.2387 16.1573 79.0267 16.0472ZM74.552 3.0299H76.4938C76.9723 3.0299 77.3944 3.05742 77.7603 3.08494C78.1543 3.13999 78.4638 3.22255 78.7453 3.36015C79.0267 3.49776 79.2237 3.6904 79.3925 3.93809C79.5333 4.18577 79.6177 4.51602 79.6177 4.90131C79.6177 5.64437 79.3925 6.16727 78.9423 6.44247C78.492 6.71768 77.8165 6.8828 76.916 6.91032H74.5801V3.0299H74.552ZM74.552 13.818V9.27711H77.0286C77.507 9.27711 77.9291 9.30463 78.3513 9.38719C78.7734 9.46975 79.1111 9.57983 79.3925 9.77248C79.674 9.9376 79.9273 10.1853 80.0961 10.4605C80.265 10.7632 80.3494 11.0935 80.3494 11.5338C80.3494 12.0292 80.2368 12.442 80.0117 12.7447C79.7865 13.0474 79.5051 13.2676 79.1393 13.4327C78.7734 13.5979 78.3513 13.7079 77.8447 13.7355C77.3381 13.7905 76.8034 13.818 76.2405 13.818H74.552ZM169.759 8.42396C169.759 7.24057 169.562 6.16727 169.168 5.149C168.774 4.15825 168.211 3.30511 167.508 2.56205C166.804 1.84651 165.96 1.26858 164.975 0.883288C163.99 0.470477 162.892 0.277832 161.71 0.277832C160.528 0.277832 159.431 0.470477 158.446 0.883288C157.461 1.2961 156.616 1.84651 155.913 2.58957C155.209 3.30511 154.674 4.15825 154.281 5.149C153.886 6.13974 153.689 7.21305 153.689 8.39644C153.689 9.57983 153.886 10.6531 154.281 11.6439C154.674 12.6346 155.209 13.4878 155.913 14.2033C156.616 14.9189 157.461 15.4968 158.474 15.8821C159.459 16.2949 160.556 16.4875 161.738 16.4875C162.948 16.4875 164.046 16.2949 165.031 15.8821C166.016 15.4693 166.86 14.9189 167.564 14.2033C168.267 13.4878 168.802 12.6346 169.196 11.6439C169.562 10.6807 169.759 9.60736 169.759 8.42396ZM166.438 10.7082C166.213 11.3962 165.875 12.0017 165.425 12.5246C164.975 13.0199 164.44 13.4327 163.821 13.7355C163.202 14.0382 162.47 14.1758 161.682 14.1758C160.894 14.1758 160.19 14.0382 159.543 13.7355C158.924 13.4327 158.389 13.0474 157.939 12.5246C157.489 12.0292 157.179 11.3962 156.954 10.7082C156.729 9.99265 156.616 9.24959 156.616 8.42396C156.616 7.59834 156.729 6.82776 156.954 6.13974C157.179 5.45173 157.517 4.84627 157.939 4.32338C158.361 3.828 158.896 3.41519 159.543 3.13999C160.162 2.86478 160.894 2.69966 161.682 2.69966C162.498 2.69966 163.202 2.83726 163.849 3.13999C164.468 3.41519 165.031 3.828 165.453 4.32338C165.903 4.81875 166.241 5.42421 166.466 6.13974C166.691 6.85528 166.804 7.62586 166.804 8.45148C166.804 9.24959 166.691 9.99265 166.438 10.7082ZM88.2575 11.7264H94.9555C95.2369 12.497 95.5465 13.2401 95.8561 13.9831C96.1656 14.7262 96.4471 15.4693 96.7848 16.2398H99.7398L93.2669 0.635601H90.1994C89.4677 2.31436 88.8485 3.80048 88.2857 5.06644C87.7228 6.35991 87.2444 7.48826 86.8222 8.50653C86.4001 9.49727 86.0342 10.3779 85.7247 11.1485C85.4151 11.8916 85.1337 12.5796 84.8804 13.185C84.6271 13.7905 84.402 14.3409 84.205 14.8363C84.008 15.3317 83.811 15.7995 83.5858 16.2674H86.4845L88.2575 11.7264ZM89.6084 8.28636C89.9461 7.43322 90.2838 6.58008 90.6215 5.72693C90.9592 4.87379 91.2969 3.99313 91.6347 3.13999H91.6909C91.8317 3.52528 92.0005 3.99313 92.2257 4.57106C92.4508 5.149 92.6478 5.72693 92.8729 6.27735C93.1262 6.91032 93.3795 7.59834 93.6609 8.28636C93.6891 8.39644 93.7454 8.50653 93.7735 8.61661C93.8298 8.72669 93.8861 8.83677 93.9142 8.97438C93.9705 9.11198 94.0268 9.22206 94.0549 9.35967H89.2425L89.6084 8.28636ZM116.231 14.2033C116.935 14.9189 117.751 15.4968 118.708 15.9096C119.665 16.3224 120.762 16.5151 121.944 16.5151C122.901 16.5151 123.774 16.3775 124.562 16.1298C125.35 15.8546 126.053 15.5243 126.644 15.084C127.235 14.6436 127.77 14.1208 128.192 13.5428C128.614 12.9649 128.952 12.3594 129.177 11.6989H126.194C125.997 12.0292 125.772 12.3594 125.519 12.6622C125.265 12.9649 124.984 13.2126 124.646 13.4327C124.308 13.6529 123.943 13.818 123.492 13.9556C123.07 14.0932 122.592 14.1483 122.085 14.1483C121.297 14.1483 120.594 14.0107 119.946 13.7079C119.327 13.4052 118.764 13.0199 118.342 12.497C117.92 12.0017 117.582 11.3962 117.329 10.6807C117.104 9.99264 116.991 9.22206 116.991 8.39644C116.991 7.59834 117.104 6.85528 117.329 6.13974C117.554 5.42421 117.864 4.81875 118.286 4.32338C118.708 3.828 119.243 3.41519 119.862 3.11247C120.481 2.80974 121.185 2.67213 121.973 2.67213C122.958 2.67213 123.802 2.8923 124.505 3.36015C125.209 3.828 125.744 4.46098 126.11 5.2866H129.205C129.008 4.54354 128.671 3.85553 128.248 3.25007C127.826 2.64461 127.32 2.12172 126.701 1.68139C126.081 1.24106 125.378 0.910809 124.59 0.663122C123.802 0.415436 122.929 0.305353 121.973 0.305353C120.762 0.305353 119.665 0.497998 118.68 0.938329C117.695 1.35114 116.851 1.92908 116.175 2.64461C115.472 3.36015 114.965 4.24082 114.571 5.23156C114.205 6.22231 114.008 7.29561 114.008 8.45148C114.008 9.60736 114.205 10.6807 114.571 11.6714C114.993 12.6346 115.528 13.4878 116.231 14.2033Z" fill="#F2F2F2"/>
</svg>
