<svg width="364" height="98" viewBox="0 0 364 98" fill="none" xmlns="http://www.w3.org/2000/svg">
<path d="M36.877 56.3985C35.0444 56.3985 34.374 55.6014 34.374 53.653L34.4634 38.0211C34.4634 37.4454 34.3293 37.0912 33.7035 37.0912C33.5248 37.0912 33.1225 37.1354 32.5414 37.1797C31.1558 37.3569 28.6528 37.5783 25.6581 37.6668L25.524 37.6668L25.524 39.6153L25.6581 39.6153C27.2672 39.6153 28.2952 40.0581 28.2952 41.918L28.2505 46.4791C28.2505 54.0072 25.2559 55.4686 23.0657 55.4686C21.2778 55.4686 20.6074 53.6087 20.6074 52.0145L20.6968 37.9768C20.6968 37.4011 20.5627 37.0469 19.9369 37.0469C19.7582 37.0469 19.4006 37.0912 18.7748 37.1354C17.4339 37.3126 15.1991 37.534 12.2044 37.6226L12.0703 37.6226L12.0703 39.571L12.2044 39.571C13.7688 39.571 14.8415 40.0138 14.8415 41.8737L14.7521 51.3503C14.7521 57.5056 17.9256 58.8341 20.5627 58.8341C24.496 58.8341 26.7755 56.2214 28.0271 54.8486C28.3846 54.4501 28.7422 54.0515 28.8316 54.0515C28.8763 54.0515 29.0998 54.0515 29.0998 54.3615L29.0998 58.2141C29.0998 58.7898 29.502 58.8784 29.7255 58.8784C29.9043 58.8784 30.2619 58.8341 30.8429 58.7455C32.2285 58.5684 34.5975 58.347 36.9664 58.347L37.1005 58.347L37.1005 56.3985L36.877 56.3985Z" fill="#FFFFFF"/>
<path d="M77.8236 26.501C72.46 26.501 70.985 34.1176 70.2699 37.926L65.9343 37.926L65.532 39.8744L70.0017 39.8744L69.7335 41.7786C69.51 43.0628 69.3313 44.347 69.1525 45.6312L68.8396 47.8453C66.9623 60.466 65.979 66.0899 63.9229 66.0899C63.6995 66.0899 63.6548 66.0013 63.6548 65.7356C63.6548 65.6471 63.6995 65.5585 63.6995 65.4256C63.7442 65.2485 63.7889 65.0271 63.7889 64.7171C63.7889 63.8315 63.1631 63.2558 62.2245 63.2558C60.8836 63.2558 60.2578 64.23 60.2578 65.1599C60.2578 66.8427 61.4646 68.0383 63.2525 68.0383C66.426 68.0383 70.3146 64.3629 73.8009 39.9187L78.6282 39.9187L78.9858 37.9702L74.0691 37.9702L74.4714 34.7819C75.0971 30.3979 75.857 28.538 77.1085 28.538C77.6002 28.538 77.913 28.8037 77.913 29.2022C77.913 29.4679 77.8683 29.6451 77.8236 29.7779C77.7789 29.955 77.7342 30.1322 77.7342 30.4422C77.7342 31.1507 78.1812 31.9921 79.4327 31.9921C80.9524 31.9921 81.6676 30.7964 81.6676 29.6008C81.6229 27.608 80.2373 26.501 77.8236 26.501Z" fill="#FFFFFF"/>
<path d="M80.8546 53.6543C79.469 53.6543 78.3516 54.8057 78.3516 56.2227C78.3516 57.6398 79.469 58.7911 80.8546 58.7911C82.2402 58.7911 83.4023 57.6398 83.4023 56.2227C83.4023 54.8057 82.2402 53.6543 80.8546 53.6543Z" fill="#FFFFFF"/>
<path d="M5.18482 92.6641L91.2708 92.6641L91.2708 5.78105L5.18482 5.78105L5.18482 92.6641ZM96.5003 97.8895L-1.73986e-07 97.8895L0 0.555664L96.5003 0.555664L96.5003 97.8895Z" fill="#FFFFFF"/>
<path d="M58.2466 44.9742C58.2466 48.4725 56.5928 56.1334 51.6762 56.1334C48.905 56.1334 47.9663 53.2993 47.9663 50.9081C47.9663 46.2584 50.1565 39.7931 54.3133 39.7931C57.5314 39.7931 58.2466 42.6272 58.2466 44.9742ZM55.4307 37.0918C51.5421 37.0918 49.4413 39.7931 48.5474 41.0773C48.5027 38.5088 47.5641 37.2689 45.5527 37.2689C42.3345 37.2689 40.4573 41.6972 39.4292 44.0885L39.3846 44.1771L40.9042 45.0627L40.9489 44.9299C41.0383 44.797 41.1277 44.5756 41.2171 44.3542C41.8876 42.8929 43.2285 39.8373 44.6588 39.8373C45.4186 39.8373 45.5527 40.8116 45.5527 41.3872C45.5527 42.2286 45.2845 43.5128 44.8823 45.5055L40.8595 62.8644C40.2785 65.4328 40.0103 65.8757 37.4626 65.8757L37.3732 65.8757L37.0156 67.8241L47.7875 67.8241L48.2345 65.8757L48.0557 65.8757C44.7035 65.8757 44.1671 65.8314 44.1671 64.5472C44.1671 64.2815 44.3012 63.6172 44.4353 63.1301L46.3126 54.9821C47.3406 57.1519 48.6368 58.9233 52.436 58.9233C59.0511 58.9233 62.5822 51.4394 62.5822 45.9927C62.6716 41.5201 60.392 37.0918 55.4307 37.0918Z" fill="#FFFFFF"/>
<path d="M154.247 71.8054C153.13 74.5067 152.102 76.898 151.252 78.935C150.359 81.0163 149.599 82.8319 148.928 84.4703C148.258 86.0645 147.677 87.4816 147.185 88.7215C146.693 89.9171 146.246 91.0242 145.844 91.9984C145.442 92.9727 145.084 93.8583 144.771 94.6554C144.459 95.4525 144.101 96.2053 143.788 96.9581L148.392 96.9581L151.252 89.74L161.89 89.74C162.382 90.9356 162.829 92.1756 163.321 93.3712C163.812 94.5668 164.259 95.7625 164.751 97.0024L169.444 97.0024L159.164 71.894L154.247 71.894L154.247 71.8054ZM159.924 84.6475C160.013 84.8246 160.102 85.046 160.147 85.2231C160.237 85.4446 160.326 85.666 160.415 85.8431L152.727 85.8431L153.353 84.1161C153.89 82.7433 154.426 81.3705 154.962 79.9978C155.499 78.625 156.035 77.2079 156.571 75.8352L156.616 75.8352C156.84 76.4551 157.108 77.2079 157.465 78.1379C157.823 79.0678 158.136 79.9978 158.493 80.8834C158.896 81.9019 159.298 83.009 159.745 84.1161C159.79 84.2932 159.834 84.4703 159.924 84.6475ZM130.022 84.9132C129.887 85.3117 129.709 85.8431 129.53 86.3745C129.351 86.9502 129.128 87.5259 128.949 88.1458C128.725 88.7658 128.547 89.3857 128.323 90.0057C128.1 90.6257 127.921 91.2013 127.742 91.6885L127.697 91.6885C127.518 91.1571 127.384 90.6257 127.206 90.05C127.027 89.4743 126.848 88.8986 126.669 88.2787C126.49 87.703 126.312 87.1273 126.133 86.5959C125.954 86.0645 125.82 85.5774 125.641 85.1346L121.127 71.8054L113.975 71.8054L113.975 96.9138L118.4 96.9138L118.4 83.7618C118.4 81.9905 118.4 80.3963 118.4 78.9793C118.4 77.5622 118.356 76.3223 118.356 75.3038L118.4 75.3038C118.669 76.1452 118.937 77.0308 119.16 77.9608C119.384 78.8907 119.741 79.9535 120.144 81.1934L125.462 96.9138L129.887 96.9138L134.312 83.8504C134.581 82.9647 134.893 82.1234 135.162 81.2377C135.43 80.352 135.698 79.5549 135.921 78.8464C136.145 78.0936 136.368 77.4736 136.547 76.898C136.726 76.3223 136.86 75.8795 136.994 75.5252L137.039 75.5252C137.039 76.0566 137.039 76.6323 137.039 77.3408C137.039 78.0493 137.039 78.8021 137.039 79.5549C137.039 80.352 137.039 81.1491 137.039 81.9462C137.039 82.7433 137.039 83.4518 137.039 84.1161L137.039 96.9138L141.509 96.9138L141.509 71.8054L134.536 71.8054L130.022 84.9132ZM227.55 77.7393C228.265 76.9423 229.114 76.278 230.142 75.8352C231.17 75.3923 232.332 75.1266 233.629 75.1266C235.193 75.1266 236.579 75.4809 237.651 76.2337C238.769 76.9422 239.573 77.9608 240.199 79.2892L245.294 79.2892C244.937 78.1822 244.401 77.1194 243.73 76.1452C243.015 75.1709 242.166 74.3296 241.182 73.621C240.199 72.9125 239.037 72.3368 237.785 71.9383C236.534 71.5397 235.148 71.3183 233.673 71.3183C231.751 71.3183 229.963 71.6283 228.354 72.2925C226.745 72.9568 225.404 73.8425 224.242 74.9938C223.125 76.1452 222.231 77.5179 221.605 79.1564C220.979 80.7506 220.667 82.4776 220.667 84.3818C220.667 86.3302 220.979 88.1015 221.605 89.6957C222.231 91.2899 223.08 92.6627 224.198 93.814C225.315 94.9654 226.611 95.8511 228.131 96.471C229.651 97.091 231.304 97.4009 233.048 97.4009C235.059 97.4009 236.713 97.091 238.054 96.5153C239.394 95.8953 240.423 95.2311 241.182 94.3897L241.182 96.9138L245.25 96.9138L245.25 83.629L232.422 83.629L232.422 87.1716L241.182 87.1716C241.093 88.0573 240.914 88.8986 240.557 89.6957C240.199 90.4928 239.752 91.1571 239.126 91.7327C238.501 92.3084 237.741 92.7955 236.891 93.1055C235.998 93.4598 234.97 93.6369 233.763 93.6369C232.422 93.6369 231.26 93.4155 230.232 92.9284C229.204 92.4413 228.31 91.8213 227.595 90.9799C226.835 90.1385 226.298 89.1643 225.941 88.013C225.583 86.8616 225.36 85.6217 225.36 84.2489C225.36 82.9204 225.538 81.7248 225.896 80.5734C226.298 79.5107 226.835 78.5364 227.55 77.7393ZM188.619 84.2046C188.619 85.4446 188.619 86.6402 188.619 87.8801C188.619 89.12 188.619 90.0943 188.619 90.8471L188.619 90.8914C188.44 90.6257 188.261 90.2714 187.993 89.8729C187.77 89.4743 187.502 89.0758 187.278 88.6772C187.055 88.2344 186.786 87.8358 186.518 87.393C186.295 86.9502 186.027 86.5959 185.803 86.1974L177.355 71.8054L171.813 71.8054L171.813 96.9138L176.193 96.9138L176.193 83.9832C176.193 83.1861 176.193 82.389 176.193 81.592C176.193 80.7949 176.193 80.0421 176.193 79.3778L176.193 77.8279L176.238 77.8279C176.417 78.1822 176.819 78.8021 177.4 79.7321C177.981 80.662 178.607 81.7691 179.367 83.0976L187.502 96.8696L192.865 96.8696L192.865 71.7612L188.619 71.7612L188.619 84.2046ZM285.879 84.9132C285.745 85.3117 285.566 85.8431 285.387 86.3745C285.209 86.9502 284.985 87.5259 284.806 88.1458C284.583 88.7658 284.404 89.3857 284.181 90.0057C283.957 90.6257 283.778 91.2013 283.555 91.6885L283.51 91.6885C283.331 91.1571 283.153 90.6257 283.019 90.05C282.84 89.4743 282.661 88.8986 282.482 88.2787C282.303 87.703 282.125 87.1273 281.946 86.5959C281.767 86.0645 281.588 85.5774 281.454 85.1346L276.895 71.8054L269.788 71.8054L269.788 96.9138L274.213 96.9138L274.213 83.7618C274.213 81.9905 274.213 80.3963 274.213 78.9793C274.213 77.5622 274.169 76.3223 274.169 75.3038L274.213 75.3038C274.481 76.1452 274.705 77.0308 274.973 77.9608C275.197 78.8907 275.554 79.9535 275.956 81.1934L281.275 96.9138L285.7 96.9138L290.125 83.8504C290.394 82.9647 290.706 82.1234 290.975 81.2377C291.243 80.352 291.511 79.5549 291.734 78.8464C291.958 78.0936 292.181 77.4736 292.36 76.898C292.539 76.3223 292.673 75.8795 292.807 75.5252L292.852 75.5252C292.852 76.0566 292.852 76.6323 292.852 77.3408C292.852 78.0493 292.852 78.8021 292.852 79.5549C292.852 80.352 292.852 81.1491 292.852 81.9462C292.852 82.7433 292.852 83.4518 292.852 84.1161L292.852 96.9138L297.322 96.9138L297.322 71.8054L290.438 71.8054L285.879 84.9132ZM306.976 86.1088L317.212 86.1088L317.212 82.1676L306.976 82.1676L306.976 75.7909L318.061 75.7909L318.061 71.8054L302.506 71.8054L302.506 96.9138L318.329 96.9138L318.329 93.0169L306.976 93.0169L306.976 86.1088ZM346.488 71.8054L346.488 75.7909L352.835 75.7909L352.835 96.9581L357.349 96.9581L357.349 75.7909L363.696 75.7909L363.696 71.8054L346.488 71.8054ZM339.113 84.2046C339.113 85.4446 339.113 86.6402 339.113 87.8801C339.113 89.12 339.113 90.0943 339.113 90.8471L339.068 90.8914C338.889 90.6257 338.711 90.2714 338.443 89.8729C338.219 89.4743 337.951 89.0758 337.727 88.6772C337.504 88.2344 337.236 87.8358 336.968 87.393C336.744 86.9502 336.476 86.5959 336.297 86.1974L327.849 71.8054L322.307 71.8054L322.307 96.9138L326.687 96.9138L326.687 83.9832C326.687 83.1861 326.687 82.389 326.687 81.592C326.687 80.7949 326.687 80.0421 326.687 79.3778L326.687 77.8279L326.732 77.8279C326.911 78.1822 327.313 78.8021 327.849 79.7321C328.43 80.662 329.056 81.7691 329.816 83.0976L337.951 96.8696L343.314 96.8696L343.314 71.7612L339.024 71.7612L339.024 84.2046L339.113 84.2046ZM205.738 71.8054C204.62 74.5067 203.592 76.898 202.698 78.935C201.805 81.0163 201.045 82.8319 200.374 84.4703C199.704 86.0645 199.123 87.4816 198.631 88.7215C198.139 89.9171 197.692 91.0242 197.29 91.9984C196.888 92.9727 196.53 93.8583 196.217 94.6554C195.905 95.4525 195.592 96.2053 195.234 96.9581L199.838 96.9581L202.654 89.74L213.292 89.74C213.783 90.9356 214.23 92.1756 214.722 93.3712C215.214 94.5668 215.661 95.7625 216.197 97.0024L220.89 97.0024L210.61 71.894L205.738 71.894L205.738 71.8054ZM211.414 84.6475C211.504 84.8246 211.593 85.046 211.638 85.2231C211.727 85.4446 211.817 85.666 211.906 85.8431L204.218 85.8431L204.844 84.1161C205.38 82.7433 205.917 81.3705 206.453 79.9978C206.945 78.625 207.481 77.2079 208.062 75.8352L208.151 75.8352C208.375 76.4551 208.643 77.2079 209.001 78.1379C209.358 79.0678 209.671 79.9978 210.029 80.8834C210.431 81.9019 210.833 83.009 211.28 84.1161C211.28 84.2932 211.325 84.4703 211.414 84.6475ZM254.457 86.1088L264.693 86.1088L264.693 82.1676L254.457 82.1676L254.457 75.7909L265.542 75.7909L265.542 71.8054L249.988 71.8054L249.988 96.9138L265.81 96.9138L265.81 93.0169L254.457 93.0169L254.457 86.1088ZM197.29 36.1577C195.413 36.1577 193.67 36.4677 192.105 37.1319C190.541 37.7962 189.2 38.6818 188.083 39.8775C186.965 41.0288 186.116 42.4016 185.49 43.9958C184.864 45.59 184.552 47.317 184.552 49.2212C184.552 51.1253 184.864 52.8523 185.49 54.4465C186.116 56.0407 186.965 57.4135 188.083 58.5648C189.2 59.7162 190.541 60.6461 192.105 61.2661C193.67 61.9303 195.413 62.2403 197.29 62.2403C199.212 62.2403 200.955 61.9303 202.52 61.2661C204.084 60.6019 205.425 59.7162 206.542 58.5648C207.66 57.4135 208.509 56.0407 209.135 54.4465C209.761 52.8523 210.073 51.1253 210.073 49.2212C210.073 47.317 209.761 45.59 209.135 43.9515C208.509 42.3573 207.66 40.9845 206.498 39.7889C205.38 38.6375 204.039 37.7076 202.475 37.0876C200.911 36.512 199.167 36.1577 197.29 36.1577ZM203.28 42.5787C203.995 43.3758 204.531 44.35 204.889 45.5014C205.246 46.6527 205.425 47.8927 205.425 49.2212C205.425 50.5496 205.246 51.7896 204.844 52.8966C204.486 54.0037 203.95 54.9779 203.235 55.8193C202.52 56.6164 201.67 57.2806 200.687 57.7677C199.704 58.2549 198.542 58.4763 197.29 58.4763C196.039 58.4763 194.921 58.2549 193.893 57.7677C192.91 57.2806 192.016 56.6607 191.345 55.8193C190.63 55.0222 190.094 54.0037 189.736 52.8966C189.379 51.7453 189.2 50.5496 189.2 49.2212C189.2 47.8927 189.379 46.6527 189.736 45.5457C190.094 44.4386 190.63 43.4644 191.301 42.623C191.971 41.8259 192.82 41.1617 193.848 40.7188C194.832 40.276 195.994 40.0103 197.245 40.0103C198.542 40.0103 199.659 40.2317 200.687 40.7188C201.67 41.1617 202.564 41.7816 203.28 42.5787ZM241.987 36.6891L241.987 61.7975L256.647 61.7975L256.647 57.9006L246.457 57.9006L246.457 36.6891L241.987 36.6891ZM216.107 39.8775C214.99 41.0288 214.141 42.4016 213.515 43.9958C212.889 45.59 212.576 47.317 212.576 49.2212C212.576 51.1253 212.889 52.8523 213.515 54.4465C214.141 56.0407 214.99 57.4135 216.107 58.5648C217.225 59.7162 218.566 60.6461 220.13 61.2661C221.695 61.9303 223.438 62.2403 225.315 62.2403C227.237 62.2403 228.98 61.9303 230.545 61.2661C232.109 60.6019 233.45 59.7162 234.567 58.5648C235.685 57.4135 236.534 56.0407 237.16 54.4465C237.785 52.8523 238.098 51.1253 238.098 49.2212C238.098 47.317 237.785 45.59 237.16 43.9515C236.534 42.3573 235.64 40.9845 234.523 39.7889C233.405 38.6375 232.064 37.7076 230.455 37.0876C228.891 36.4234 227.148 36.1134 225.27 36.1134C223.393 36.1134 221.65 36.4234 220.085 37.0876C218.566 37.7962 217.225 38.7261 216.107 39.8775ZM225.27 40.0103C226.567 40.0103 227.684 40.2317 228.712 40.7188C229.695 41.1617 230.589 41.8259 231.26 42.623C231.975 43.4201 232.511 44.3943 232.869 45.5457C233.226 46.697 233.405 47.9369 233.405 49.2654C233.405 50.5939 233.226 51.8338 232.824 52.9409C232.422 54.048 231.885 55.0222 231.215 55.8636C230.5 56.6607 229.651 57.3249 228.667 57.812C227.684 58.2991 226.522 58.5206 225.27 58.5206C224.019 58.5206 222.901 58.2991 221.873 57.812C220.845 57.3249 219.996 56.705 219.326 55.8636C218.611 55.0665 218.119 54.048 217.717 52.9409C217.359 51.7896 217.18 50.5939 217.18 49.2654C217.18 47.9369 217.359 46.697 217.717 45.59C218.074 44.4829 218.611 43.5087 219.281 42.6673C219.996 41.8702 220.801 41.2059 221.829 40.7631C222.857 40.2317 224.019 40.0103 225.27 40.0103ZM180.663 61.7975L180.663 36.6891L176.149 36.6891L176.149 46.9184L165.332 46.9184L165.332 36.6891L160.818 36.6891L160.818 61.7975L165.332 61.7975L165.332 50.8596L176.149 50.8596L176.149 61.7975L180.663 61.7975ZM140.078 42.6673C140.749 41.8702 141.598 41.2059 142.581 40.7188C143.565 40.2317 144.682 40.0103 145.934 40.0103C147.498 40.0103 148.839 40.3646 149.956 41.1174C151.074 41.8702 151.923 42.8887 152.549 44.2172L157.465 44.2172C157.152 43.0215 156.616 41.9145 155.946 40.9402C155.275 39.966 154.471 39.1247 153.487 38.4161C152.504 37.7076 151.387 37.1762 150.135 36.7777C148.884 36.3791 147.498 36.202 145.978 36.202C144.056 36.202 142.313 36.512 140.749 37.2205C139.184 37.8847 137.843 38.8147 136.771 39.966C135.653 41.1174 134.804 42.5344 134.223 44.1286C133.642 45.7228 133.329 47.4498 133.329 49.3097C133.329 51.1696 133.642 52.8966 134.223 54.4908C134.804 56.085 135.698 57.4578 136.771 58.6091C137.888 59.7605 139.184 60.6904 140.704 61.3547C142.224 62.0189 143.967 62.3289 145.844 62.3289C147.364 62.3289 148.749 62.1075 150.001 61.7089C151.252 61.2661 152.37 60.7347 153.309 60.0262C154.247 59.3177 155.096 58.4763 155.767 57.5463C156.437 56.6164 156.929 55.6422 157.331 54.5794L152.593 54.5794C152.28 55.1108 151.923 55.6422 151.521 56.1293C151.118 56.6164 150.671 57.0149 150.135 57.3692C149.599 57.7235 149.018 57.9892 148.302 58.2106C147.632 58.432 146.872 58.5206 146.068 58.5206C144.816 58.5206 143.699 58.2991 142.671 57.812C141.687 57.3249 140.838 56.705 140.123 55.8636C139.408 55.0665 138.871 54.0923 138.514 52.9409C138.156 51.8338 137.978 50.5939 137.978 49.2654C137.978 47.9812 138.156 46.7856 138.514 45.6342C138.916 44.4829 139.408 43.5087 140.078 42.6673ZM312.206 47.0513L302.506 47.0513L302.506 40.6303L313.055 40.6303L313.055 36.6448L298.037 36.6448L298.037 61.7532L302.551 61.7532L302.551 50.9482L312.25 50.9482L312.25 47.0513L312.206 47.0513ZM115.048 60.2033C115.897 60.8676 116.881 61.3989 117.998 61.7532C119.16 62.1075 120.367 62.2846 121.753 62.2846C123.138 62.2846 124.39 62.1075 125.507 61.7089C126.669 61.3104 127.653 60.779 128.457 60.1147C129.306 59.4062 129.932 58.6091 130.379 57.6349C130.871 56.6607 131.094 55.5979 131.094 54.4465C131.094 53.3395 130.915 52.3652 130.603 51.6124C130.29 50.8596 129.798 50.1954 129.172 49.664C128.547 49.1326 127.787 48.6455 126.893 48.2912C125.999 47.8927 125.015 47.5384 123.853 47.1841L122.065 46.6527C121.395 46.4313 120.769 46.2542 120.233 46.0328C119.697 45.8557 119.205 45.59 118.803 45.3243C118.4 45.0586 118.087 44.7486 117.909 44.3943C117.685 44.0401 117.596 43.5972 117.596 43.0215C117.596 42.1359 117.953 41.3831 118.624 40.8074C119.294 40.2317 120.278 39.9217 121.574 39.9217C122.915 39.9217 123.943 40.1874 124.658 40.7631C125.373 41.3388 125.865 42.0916 126.133 43.1101L130.424 43.1101C130.334 42.0473 130.066 41.1174 129.619 40.2317C129.172 39.3461 128.591 38.6375 127.831 38.0176C127.072 37.3976 126.178 36.9105 125.15 36.5562C124.122 36.202 122.959 36.0248 121.663 36.0248C120.367 36.0248 119.205 36.202 118.132 36.5562C117.059 36.9105 116.121 37.3976 115.361 38.0619C114.601 38.6818 113.975 39.4346 113.528 40.3203C113.081 41.2059 112.858 42.1802 112.858 43.1987C112.858 44.2172 113.037 45.1028 113.35 45.8557C113.662 46.6527 114.154 47.317 114.78 47.8927C115.406 48.4683 116.166 48.9997 117.059 49.4426C117.953 49.8854 118.937 50.2397 120.054 50.5496L121.708 50.9925C122.423 51.1696 123.049 51.3467 123.63 51.5681C124.211 51.7453 124.703 51.9667 125.105 52.2767C125.507 52.5424 125.82 52.8524 126.043 53.2509C126.267 53.6052 126.356 54.0923 126.356 54.7122C126.356 55.8193 125.954 56.7492 125.194 57.4578C124.434 58.1663 123.272 58.5206 121.797 58.5206C120.322 58.5206 119.115 58.1663 118.177 57.4578C117.238 56.7492 116.657 55.8193 116.389 54.6237L112.187 54.6237C112.232 55.775 112.545 56.8378 113.037 57.7677C113.573 58.742 114.244 59.5391 115.048 60.2033ZM276.135 61.3104C277.7 61.9746 279.443 62.2846 281.32 62.2846C283.242 62.2846 284.985 61.9746 286.55 61.3104C288.114 60.6461 289.455 59.7605 290.572 58.6091C291.69 57.4578 292.539 56.085 293.165 54.4908C293.79 52.8966 294.103 51.1696 294.103 49.2654C294.103 47.3613 293.79 45.6342 293.165 43.9958C292.539 42.4016 291.645 41.0288 290.528 39.8332C289.41 38.6818 288.069 37.7519 286.505 37.1319C284.941 36.4677 283.197 36.1577 281.32 36.1577C279.443 36.1577 277.7 36.4677 276.135 37.1319C274.571 37.7962 273.23 38.6818 272.113 39.8775C270.995 41.0288 270.146 42.4016 269.52 43.9958C268.894 45.59 268.581 47.317 268.581 49.2212C268.581 51.1253 268.894 52.8523 269.475 54.4465C270.101 56.0407 270.95 57.4135 272.068 58.5648C273.23 59.7605 274.571 60.6461 276.135 61.3104ZM273.766 45.5014C274.124 44.3943 274.66 43.4201 275.331 42.5787C276.001 41.7816 276.85 41.1174 277.878 40.6745C278.862 40.2317 280.024 39.966 281.275 39.966C282.527 39.966 283.689 40.1874 284.717 40.6745C285.7 41.1174 286.55 41.7816 287.265 42.5787C287.98 43.3758 288.516 44.35 288.874 45.5014C289.231 46.6527 289.41 47.8927 289.41 49.2212C289.41 50.5496 289.231 51.7896 288.829 52.8966C288.472 54.0037 287.935 54.9779 287.22 55.8193C286.505 56.6164 285.656 57.2806 284.672 57.7677C283.644 58.2549 282.527 58.4763 281.275 58.4763C280.024 58.4763 278.906 58.2549 277.878 57.7677C276.895 57.2806 276.001 56.6607 275.331 55.8193C274.616 55.0222 274.079 54.0037 273.722 52.8966C273.364 51.7453 273.185 50.5496 273.185 49.2212C273.185 47.8927 273.409 46.6527 273.766 45.5014ZM277.878 13.7505C277.878 12.9535 277.878 12.2006 277.878 11.4036C277.878 10.6065 277.878 9.85365 277.878 9.18941L277.878 7.6395L277.923 7.6395C278.102 7.99377 278.504 8.61373 279.041 9.54367C279.622 10.4736 280.292 11.5807 281.052 12.9092L289.187 26.6812L294.55 26.6812L294.55 1.52846L290.259 1.52846L290.259 13.9277C290.259 15.1676 290.259 16.3632 290.259 17.6032C290.259 18.8431 290.259 19.8173 290.259 20.5701L290.215 20.6144C290.036 20.3487 289.857 19.9944 289.589 19.5959C289.365 19.1973 289.097 18.7988 288.874 18.4003C288.65 17.9574 288.382 17.5589 288.114 17.116C287.89 16.6732 287.622 16.2747 287.399 15.9204L278.996 1.52846L273.498 1.52846L273.498 26.6369L277.878 26.6369L277.878 13.7505ZM304.339 19.4188L314.977 19.4188C315.424 20.6587 315.915 21.8543 316.407 23.05C316.899 24.2456 317.346 25.4412 317.837 26.6812L322.53 26.6812L312.25 1.57275L307.378 1.57275C306.216 4.274 305.233 6.66528 304.339 8.70229C303.445 10.7836 302.685 12.5992 302.015 14.2377C301.344 15.8318 300.763 17.2489 300.271 18.4888C299.78 19.6845 299.333 20.7915 298.931 21.7658C298.528 22.74 298.171 23.6256 297.858 24.4227C297.545 25.2198 297.232 25.9726 296.875 26.7254L301.478 26.7254L304.339 19.4188ZM306.484 13.8834C307.021 12.5106 307.557 11.1379 308.093 9.76508C308.63 8.39231 309.166 6.97526 309.703 5.60249L309.792 5.60249C310.015 6.22245 310.284 6.97526 310.641 7.9052C310.999 8.83514 311.312 9.76508 311.669 10.6507C312.071 11.6692 312.474 12.7763 312.921 13.8834C312.965 14.0605 313.055 14.2377 313.099 14.4148C313.189 14.5919 313.278 14.7691 313.323 14.9905C313.412 15.2119 313.502 15.389 313.546 15.6104L305.903 15.6104L306.484 13.8834ZM243.104 22.74L232.913 22.74L232.913 1.52846L228.399 1.52846L228.399 26.6369L243.06 26.6369L243.06 22.74L243.104 22.74ZM165.287 16.8946L168.148 16.8946L174.003 26.6812L179.143 26.6812L172.796 16.3632C173.556 16.1861 174.316 15.8761 175.076 15.5219C175.836 15.1676 176.461 14.6805 177.043 14.0605C177.624 13.4406 178.071 12.732 178.383 11.8907C178.696 11.0493 178.875 10.0751 178.875 8.92371C178.875 7.63951 178.607 6.48815 178.115 5.46964C177.624 4.45114 176.864 3.60976 175.88 2.9898C174.986 2.36984 173.958 1.97129 172.796 1.79416C171.679 1.61703 170.472 1.52847 169.221 1.52847L160.818 1.52847L160.818 26.6369L165.332 26.6369L165.332 16.8946L165.287 16.8946ZM165.287 5.38108L168.997 5.38108C170.651 5.38108 171.947 5.64678 172.93 6.22245C173.914 6.79813 174.361 7.77235 174.361 9.18941C174.361 10.6065 173.869 11.5807 172.93 12.2006C171.947 12.7763 170.651 13.0863 168.997 13.0863L165.287 13.0863L165.287 5.38108ZM224.421 22.74L213.068 22.74L213.068 15.8318L223.304 15.8318L223.304 11.8907L213.068 11.8907L213.068 5.51393L224.153 5.51393L224.153 1.52846L208.598 1.52846L208.598 26.6369L224.421 26.6369L224.421 22.74ZM125.507 26.3712C126.714 26.194 127.831 25.8398 128.815 25.3527C129.798 24.8213 130.603 24.1127 131.228 23.1385C131.854 22.2086 132.167 20.9687 132.167 19.4188C132.167 18.4445 131.988 17.6032 131.675 16.8946C131.362 16.1861 130.96 15.5661 130.468 15.079C129.977 14.5919 129.44 14.1491 128.859 13.8391C128.278 13.5291 127.697 13.2634 127.161 13.1306C127.653 12.9535 128.144 12.732 128.591 12.4221C129.038 12.1121 129.44 11.7578 129.798 11.2707C130.156 10.8279 130.424 10.2965 130.647 9.7208C130.871 9.14512 130.96 8.48088 130.96 7.72807C130.96 6.48815 130.737 5.51393 130.29 4.67255C129.843 3.87546 129.128 3.21122 128.234 2.76839C127.34 2.28127 126.178 1.97129 124.837 1.79416C123.451 1.61703 121.887 1.52847 120.099 1.52847L113.975 1.52847L113.975 26.6369L121.887 26.6369C123.094 26.6369 124.256 26.5483 125.507 26.3712ZM118.4 5.42536L121.484 5.42536C122.244 5.42536 122.915 5.46964 123.496 5.51393C124.122 5.60249 124.613 5.73534 125.06 5.95676C125.507 6.17817 125.82 6.48815 126.088 6.8867C126.312 7.28524 126.446 7.81664 126.446 8.4366C126.446 9.63224 126.088 10.4736 125.373 10.9164C124.658 11.3593 123.585 11.625 122.155 11.6693L118.445 11.6693L118.445 5.42536L118.4 5.42536ZM118.4 22.7843L118.4 15.4776L122.334 15.4776C123.094 15.4776 123.764 15.5219 124.434 15.6547C125.105 15.7876 125.641 15.9647 126.088 16.2747C126.535 16.5404 126.937 16.9389 127.206 17.3817C127.474 17.8689 127.608 18.4003 127.608 19.1088C127.608 19.9059 127.429 20.5701 127.072 21.0572C126.714 21.5443 126.267 21.8986 125.686 22.1643C125.105 22.43 124.434 22.6071 123.63 22.6514C122.825 22.74 121.976 22.7843 121.082 22.7843L118.4 22.7843ZM269.61 14.1048C269.61 12.2006 269.297 10.4736 268.671 8.83514C268.045 7.24096 267.151 5.86819 266.034 4.67255C264.916 3.5212 263.575 2.59125 262.011 1.97129C260.447 1.30705 258.703 0.99707 256.826 0.99707C254.949 0.99707 253.206 1.30705 251.641 1.97129C250.077 2.63554 248.736 3.5212 247.619 4.71683C246.501 5.86819 245.652 7.24096 245.026 8.83514C244.401 10.4293 244.088 12.1564 244.088 14.0605C244.088 15.9647 244.401 17.6917 245.026 19.2859C245.652 20.8801 246.501 22.2529 247.619 23.4042C248.736 24.5556 250.077 25.4855 251.686 26.1055C253.25 26.7697 254.994 27.0797 256.871 27.0797C258.793 27.0797 260.536 26.7697 262.1 26.1055C263.665 25.4412 265.006 24.5556 266.123 23.4042C267.241 22.2529 268.09 20.8801 268.716 19.2859C269.297 17.736 269.61 16.009 269.61 14.1048ZM264.335 17.7803C263.978 18.8874 263.441 19.8616 262.726 20.703C262.011 21.5001 261.162 22.1643 260.178 22.6514C259.195 23.1385 258.033 23.3599 256.782 23.3599C255.53 23.3599 254.413 23.1385 253.385 22.6514C252.401 22.1643 251.552 21.5443 250.837 20.703C250.122 19.9059 249.63 18.8874 249.272 17.7803C248.915 16.6289 248.736 15.4333 248.736 14.1048C248.736 12.7763 248.915 11.5364 249.272 10.4293C249.63 9.32226 250.166 8.34803 250.837 7.50666C251.507 6.70956 252.357 6.04532 253.385 5.60249C254.368 5.15966 255.53 4.89397 256.782 4.89397C258.078 4.89397 259.195 5.11538 260.223 5.60249C261.207 6.04532 262.1 6.70956 262.771 7.50666C263.486 8.30375 264.022 9.27797 264.38 10.4293C264.738 11.5807 264.916 12.8206 264.916 14.1491C264.916 15.4333 264.738 16.6289 264.335 17.7803ZM140.168 19.4188L150.806 19.4188C151.252 20.6587 151.744 21.8543 152.236 23.05C152.727 24.2456 153.174 25.4412 153.711 26.6812L158.404 26.6812L148.124 1.57275L143.252 1.57275C142.09 4.27401 141.106 6.66528 140.212 8.70229C139.318 10.7836 138.559 12.5992 137.888 14.2377C137.218 15.8318 136.637 17.2489 136.145 18.4888C135.653 19.6845 135.206 20.7915 134.804 21.7658C134.402 22.74 134.044 23.6256 133.731 24.4227C133.418 25.2198 133.106 25.9726 132.748 26.7254L137.352 26.7254L140.168 19.4188ZM142.313 13.8834C142.849 12.5106 143.386 11.1379 143.922 9.76509C144.459 8.39232 144.995 6.97526 145.531 5.60249L145.621 5.60249C145.844 6.22245 146.112 6.97526 146.47 7.9052C146.827 8.83514 147.14 9.76509 147.498 10.6507C147.9 11.6692 148.302 12.7763 148.749 13.8834C148.794 14.0605 148.884 14.2377 148.928 14.4148C149.018 14.5919 149.107 14.7691 149.152 14.9905C149.241 15.2119 149.331 15.389 149.375 15.6104L141.732 15.6104L142.313 13.8834ZM184.596 23.4042C185.714 24.5556 187.01 25.4855 188.53 26.1498C190.049 26.814 191.792 27.124 193.67 27.124C195.189 27.124 196.575 26.9026 197.827 26.504C199.078 26.0612 200.195 25.5298 201.134 24.8213C202.073 24.1127 202.922 23.2714 203.592 22.3414C204.263 21.4115 204.799 20.4373 205.157 19.3745L200.419 19.3745C200.106 19.9059 199.748 20.4373 199.346 20.9244C198.944 21.4115 198.497 21.81 197.961 22.1643C197.424 22.5186 196.843 22.7843 196.128 23.0057C195.458 23.2271 194.698 23.3157 193.893 23.3157C192.642 23.3157 191.524 23.0942 190.496 22.6071C189.513 22.12 188.619 21.5001 187.949 20.6587C187.278 19.8616 186.742 18.8874 186.339 17.736C185.982 16.6289 185.803 15.389 185.803 14.0605C185.803 12.7763 185.982 11.5807 186.339 10.4293C186.697 9.27797 187.189 8.30375 187.859 7.50666C188.53 6.70956 189.379 6.04532 190.362 5.55821C191.345 5.0711 192.463 4.84968 193.714 4.84968C195.279 4.84968 196.62 5.20395 197.737 5.95675C198.855 6.70956 199.704 7.72807 200.285 9.05656L205.201 9.05656C204.889 7.86092 204.352 6.75385 203.682 5.77962C203.011 4.8054 202.207 3.96402 201.223 3.2555C200.24 2.54697 199.123 2.01558 197.871 1.61703C196.62 1.21848 195.234 1.04135 193.714 1.04135C191.792 1.04135 190.049 1.35133 188.485 2.05986C186.921 2.7241 185.58 3.65404 184.507 4.8054C183.389 5.95676 182.585 7.37381 181.959 8.96799C181.378 10.5622 181.065 12.2892 181.065 14.1491C181.065 16.009 181.378 17.736 181.959 19.3302C182.63 20.8801 183.479 22.2529 184.596 23.4042Z" fill="#FFFFFF"/>
</svg>
