<svg width="23" height="24" viewBox="0 0 23 24" fill="none" xmlns="http://www.w3.org/2000/svg">
<mask id="mask0_835_40" style="mask-type:alpha" maskUnits="userSpaceOnUse" x="0" y="0" width="23" height="24">
<rect x="0.249512" y="0.758057" width="22.5361" height="22.5361" fill="#D9D9D9"/>
</mask>
<g mask="url(#mask0_835_40)">
<path d="M11.5175 23.2941C9.97211 23.2941 8.51469 23.0007 7.14532 22.4138C5.77594 21.8269 4.57773 21.02 3.55069 19.9929C2.52366 18.9659 1.7167 17.7677 1.12983 16.3983C0.54295 15.0289 0.249512 13.5715 0.249512 12.0261C0.249512 10.4611 0.54295 8.99879 1.12983 7.63919C1.7167 6.27959 2.52366 5.08627 3.55069 4.05924C4.57773 3.0322 5.77594 2.22525 7.14532 1.63837C8.51469 1.0515 9.97211 0.758057 11.5175 0.758057C13.0826 0.758057 14.5449 1.0515 15.9045 1.63837C17.2641 2.22525 18.4574 3.0322 19.4844 4.05924C20.5114 5.08627 21.3184 6.27959 21.9053 7.63919C22.4921 8.99879 22.7856 10.4611 22.7856 12.0261C22.7856 13.5715 22.4921 15.0289 21.9053 16.3983C21.3184 17.7677 20.5114 18.9659 19.4844 19.9929C18.4574 21.02 17.2641 21.8269 15.9045 22.4138C14.5449 23.0007 13.0826 23.2941 11.5175 23.2941ZM11.5175 21.0933C11.8501 20.7608 12.1827 20.1397 12.5152 19.23C12.8478 18.3203 13.1021 17.3275 13.2782 16.2516H9.75692C9.93298 17.3275 10.1873 18.3203 10.5199 19.23C10.8524 20.1397 11.185 20.7608 11.5175 21.0933ZM8.84726 20.7999C8.57338 20.213 8.33374 19.5381 8.12833 18.7752C7.92293 18.0122 7.75175 17.171 7.61482 16.2516H3.41865C3.98596 17.3667 4.73912 18.3203 5.67812 19.1126C6.61713 19.9049 7.6735 20.4673 8.84726 20.7999ZM14.1878 20.7999C15.3616 20.4673 16.418 19.9049 17.357 19.1126C18.296 18.3203 19.0491 17.3667 19.6164 16.2516H15.4203C15.2833 17.171 15.1122 18.0122 14.9068 18.7752C14.7014 19.5381 14.4617 20.213 14.1878 20.7999ZM15.6844 14.1388H20.4087C20.5065 13.7672 20.575 13.4101 20.6141 13.0678C20.6533 12.7255 20.6728 12.3782 20.6728 12.0261C20.6728 11.674 20.6533 11.3218 20.6141 10.9697C20.575 10.6176 20.5065 10.2655 20.4087 9.91334H15.6844C15.7235 10.285 15.748 10.6518 15.7577 11.0137C15.7675 11.3756 15.7724 11.7327 15.7724 12.0848C15.7724 12.4369 15.7675 12.7841 15.7577 13.1265C15.748 13.4688 15.7235 13.8063 15.6844 14.1388ZM9.49282 14.1388H13.5423C13.5814 13.7476 13.6059 13.3808 13.6156 13.0385C13.6254 12.6961 13.6303 12.3587 13.6303 12.0261C13.6303 11.6935 13.6254 11.3512 13.6156 10.9991C13.6059 10.6469 13.5814 10.285 13.5423 9.91334H9.49282C9.4537 10.285 9.42924 10.6469 9.41946 10.9991C9.40968 11.3512 9.40479 11.6935 9.40479 12.0261C9.40479 12.3587 9.40968 12.701 9.41946 13.0531C9.42924 13.4053 9.4537 13.7672 9.49282 14.1388ZM2.62636 14.1388H7.35072C7.3116 13.7672 7.28714 13.4004 7.27736 13.0385C7.26758 12.6765 7.26269 12.3195 7.26269 11.9674C7.26269 11.6153 7.26758 11.268 7.27736 10.9257C7.28714 10.5834 7.3116 10.2459 7.35072 9.91334H2.62636C2.52855 10.285 2.46008 10.642 2.42096 10.9844C2.38183 11.3267 2.36227 11.674 2.36227 12.0261C2.36227 12.3782 2.38183 12.7255 2.42096 13.0678C2.46008 13.4101 2.52855 13.7672 2.62636 14.1388ZM15.4203 7.80058H19.6164C19.0491 6.68551 18.296 5.73184 17.357 4.93955C16.418 4.14727 15.3616 3.58485 14.1878 3.25228C14.4617 3.83916 14.7014 4.51407 14.9068 5.27701C15.1122 6.03995 15.2833 6.88114 15.4203 7.80058ZM9.75692 7.80058H13.2782C13.1021 6.72464 12.8478 5.73184 12.5152 4.82218C12.1827 3.91252 11.8501 3.29141 11.5175 2.95884C11.185 3.29141 10.8524 3.91252 10.5199 4.82218C10.1873 5.73184 9.93298 6.72464 9.75692 7.80058ZM3.41865 7.80058H7.61482C7.75175 6.88114 7.92293 6.03995 8.12833 5.27701C8.33374 4.51407 8.57338 3.83916 8.84726 3.25228C7.6735 3.58485 6.61713 4.14727 5.67812 4.93955C4.73912 5.73184 3.98596 6.68551 3.41865 7.80058Z" fill="white"/>
</g>
</svg>
